<svg xmlns="http://www.w3.org/2000/svg" width="256.78" height="129.24" viewBox="0 0 256.78 129.24">
    <defs>
        <style>
            .cls-1{fill:#33e987;}.cls-2{fill:#ffef68;}.cls-3{fill:#f66db3;}.cls-4{fill:#00a6aa;}.cls-5{fill:#e16a03;}
        </style>
    </defs>
    <title>logo_variant_1</title>
    <g id="Layer_2" data-name="Layer 2">
        <g id="Layer_1-2" data-name="Layer 1">
            <path d="M25.83,73.49A13.9,13.9,0,0,1,22,63.28a13.36,13.36,0,0,1,3.93-10.11A13,13,0,0,1,35.3,49.4,10.3,10.3,0,0,1,44,54V39.09h5.72V77H44V72.88a10.59,10.59,0,0,1-9.24,4.49,12.22,12.22,0,0,1-9-3.88m1.89-10a8.5,8.5,0,0,0,2.5,6.35,8.12,8.12,0,0,0,5.87,2.45,7.58,7.58,0,0,0,5.72-2.48,8.86,8.86,0,0,0,2.35-6.35A9.33,9.33,0,0,0,41.8,57,7.47,7.47,0,0,0,36,54.4,7.78,7.78,0,0,0,30.17,57a9.13,9.13,0,0,0-2.45,6.51"/>
            <path d="M88.41,65.89H67.12a6.18,6.18,0,0,0,2.71,4.77,9.48,9.48,0,0,0,5.71,1.81q5.1,0,7.76-3.22l3.27,3.57a15.18,15.18,0,0,1-11.43,4.54,13.6,13.6,0,0,1-9.72-3.8q-4-3.8-4-10.21a13.19,13.19,0,0,1,4.08-10.18,13.71,13.71,0,0,1,9.62-3.78,13.93,13.93,0,0,1,9.42,3.34A11.52,11.52,0,0,1,88.41,62ZM67.12,61.39H82.69a6.55,6.55,0,0,0-2.14-5.26,7.84,7.84,0,0,0-5.28-1.84,9,9,0,0,0-5.64,1.91,6.18,6.18,0,0,0-2.5,5.18"/>
            <path d="M111.83,77.37a13.71,13.71,0,0,1-9.75-3.85A13.22,13.22,0,0,1,98,63.44a13.1,13.1,0,0,1,4.26-10.13,14.81,14.81,0,0,1,10.38-3.91A14.09,14.09,0,0,1,123,53.64l-3.37,4.13a10.84,10.84,0,0,0-7.1-3.06,9,9,0,0,0-6.2,2.37,7.87,7.87,0,0,0-2.63,6.13,8.89,8.89,0,0,0,9,9q3.8,0,7.17-3.47l3.37,3.67a15.62,15.62,0,0,1-11.43,5"/>
            <path d="M156.44,73.31a14.87,14.87,0,0,1-20.42,0,14.11,14.11,0,0,1,0-19.85,14.87,14.87,0,0,1,20.42,0,14.11,14.11,0,0,1,0,19.85m-16.36-3.52a8.88,8.88,0,0,0,12.3,0,8.77,8.77,0,0,0,2.42-6.41A8.77,8.77,0,0,0,152.39,57a8.88,8.88,0,0,0-12.3,0,8.77,8.77,0,0,0-2.42,6.41,8.77,8.77,0,0,0,2.42,6.41"/>
            <path d="M174.21,73.49a13.9,13.9,0,0,1-3.83-10.21,13.36,13.36,0,0,1,3.93-10.11,13,13,0,0,1,9.37-3.78A10.3,10.3,0,0,1,192.43,54V39.09h5.72V77h-5.72V72.88a10.59,10.59,0,0,1-9.24,4.49,12.22,12.22,0,0,1-9-3.88m1.89-10a8.5,8.5,0,0,0,2.5,6.35,8.12,8.12,0,0,0,5.87,2.45,7.58,7.58,0,0,0,5.72-2.48,8.86,8.86,0,0,0,2.35-6.35A9.33,9.33,0,0,0,190.18,57a7.47,7.47,0,0,0-5.77-2.6,7.78,7.78,0,0,0-5.87,2.6,9.13,9.13,0,0,0-2.45,6.51"/>
            <path d="M236.78,65.89H215.5a6.18,6.18,0,0,0,2.71,4.77,9.48,9.48,0,0,0,5.71,1.81q5.1,0,7.76-3.22l3.27,3.57a15.18,15.18,0,0,1-11.43,4.54,13.6,13.6,0,0,1-9.72-3.8q-4-3.8-4-10.21a13.19,13.19,0,0,1,4.08-10.18,13.71,13.71,0,0,1,9.62-3.78,13.93,13.93,0,0,1,9.42,3.34A11.52,11.52,0,0,1,236.78,62ZM215.5,61.39h15.57a6.54,6.54,0,0,0-2.14-5.26,7.84,7.84,0,0,0-5.28-1.84A9,9,0,0,0,218,56.21a6.18,6.18,0,0,0-2.5,5.18"/>
            <rect class="cls-1" x="22" y="117.83" width="11.41" height="11.41"/>
            <rect class="cls-2" width="11.41" height="11.41"/>
            <rect class="cls-3" x="215.37" y="105.05" width="11.41" height="11.41"/>
            <rect class="cls-4" x="22" y="87.43" width="102.69" height="11.41"/>
            <rect class="cls-5" x="154.1" y="19.3" width="102.69" height="11.41"/>
        </g>
    </g>
</svg>